<mxfile host="65bd71144e">
    <diagram id="AiYhXuPw0hqv-7yyf6w0" name="Page-1">
        <mxGraphModel dx="977" dy="489" grid="1" gridSize="10" guides="1" tooltips="1" connect="1" arrows="1" fold="1" page="1" pageScale="1" pageWidth="850" pageHeight="1100" math="0" shadow="0">
            <root>
                <mxCell id="0"/>
                <mxCell id="1" parent="0"/>
                <mxCell id="2" value="title: nice document&#10;author: Me&#10;date: 2023-06-15&#10;format: pdf" style="swimlane;startSize=80;align=left;fillColor=#b1ddf0;strokeColor=#10739e;swimlaneFillColor=#B3B3B3;gradientColor=none;fontColor=#000000;" vertex="1" parent="1">
                    <mxGeometry x="40" y="40" width="210" height="220" as="geometry"/>
                </mxCell>
                <mxCell id="6" value="# Introduction&lt;br&gt;&lt;br&gt;Lorem ipsum blabla ...&lt;br&gt;&lt;br&gt;# Question&lt;br&gt;&lt;br&gt;To be or not to be, this is the question!" style="text;strokeColor=none;fillColor=none;align=left;verticalAlign=top;spacingLeft=4;spacingRight=4;overflow=hidden;rotatable=0;points=[[0,0.5],[1,0.5]];portConstraint=eastwest;whiteSpace=wrap;html=1;fontColor=#000000;" vertex="1" parent="2">
                    <mxGeometry y="87" width="210" height="133" as="geometry"/>
                </mxCell>
                <mxCell id="3" value="" style="shape=datastore;whiteSpace=wrap;html=1;fillColor=#B3FF66;strokeColor=#6E6E6E;gradientColor=default;gradientDirection=west;" vertex="1" parent="1">
                    <mxGeometry x="570" y="40" width="200" height="230" as="geometry"/>
                </mxCell>
                <mxCell id="10" value="" style="shape=singleArrow;whiteSpace=wrap;html=1;arrowWidth=0.7333333333333333;arrowSize=0.192;fillColor=#60a917;strokeColor=#2D7600;fontColor=#ffffff;" vertex="1" parent="1">
                    <mxGeometry x="280" y="70" width="250" height="60" as="geometry"/>
                </mxCell>
                <mxCell id="11" value="" style="shape=singleArrow;whiteSpace=wrap;html=1;arrowWidth=0.7333333333333333;arrowSize=0.192;rotation=-180;fillColor=#60a917;fontColor=#ffffff;strokeColor=#2D7600;" vertex="1" parent="1">
                    <mxGeometry x="280" y="170" width="250" height="60" as="geometry"/>
                </mxCell>
            </root>
        </mxGraphModel>
    </diagram>
</mxfile>